<svg xmlns="http://www.w3.org/2000/svg" xmlns:xlink="http://www.w3.org/1999/xlink" width="500" zoomAndPan="magnify" viewBox="0 0 375 374.999991" height="500" preserveAspectRatio="xMidYMid meet" version="1.0"><defs><g/><clipPath id="94c3cf49a0"><path d="M 44.410156 170.535156 L 75.972656 170.535156 L 75.972656 200.574219 L 44.410156 200.574219 Z M 44.410156 170.535156 " clip-rule="nonzero"/></clipPath><clipPath id="024ba15696"><path d="M 60.167969 170.535156 L 63.886719 182.007812 L 75.925781 182.007812 L 66.1875 189.097656 L 69.90625 200.574219 L 60.167969 193.480469 L 50.429688 200.574219 L 54.148438 189.097656 L 44.410156 182.007812 L 56.449219 182.007812 Z M 60.167969 170.535156 " clip-rule="nonzero"/></clipPath><clipPath id="801ef2995d"><path d="M 80.519531 170.535156 L 112.085938 170.535156 L 112.085938 200.574219 L 80.519531 200.574219 Z M 80.519531 170.535156 " clip-rule="nonzero"/></clipPath><clipPath id="bf44bbf5fb"><path d="M 96.277344 170.535156 L 100 182.007812 L 112.039062 182.007812 L 102.296875 189.097656 L 106.019531 200.574219 L 96.277344 193.480469 L 86.539062 200.574219 L 90.257812 189.097656 L 80.519531 182.007812 L 92.558594 182.007812 Z M 96.277344 170.535156 " clip-rule="nonzero"/></clipPath><clipPath id="5f5f2ff79f"><path d="M 116.632812 170.535156 L 148.195312 170.535156 L 148.195312 200.574219 L 116.632812 200.574219 Z M 116.632812 170.535156 " clip-rule="nonzero"/></clipPath><clipPath id="0730d9887b"><path d="M 132.390625 170.535156 L 136.109375 182.007812 L 148.148438 182.007812 L 138.410156 189.097656 L 142.128906 200.574219 L 132.390625 193.480469 L 122.652344 200.574219 L 126.371094 189.097656 L 116.632812 182.007812 L 128.671875 182.007812 Z M 132.390625 170.535156 " clip-rule="nonzero"/></clipPath><clipPath id="a8d6f3c2be"><path d="M 232.808594 144.183594 L 264.375 144.183594 L 264.375 174.222656 L 232.808594 174.222656 Z M 232.808594 144.183594 " clip-rule="nonzero"/></clipPath><clipPath id="6dc6c3fb30"><path d="M 248.566406 144.183594 L 252.289062 155.65625 L 264.324219 155.65625 L 254.585938 162.75 L 258.308594 174.222656 L 248.566406 167.132812 L 238.828125 174.222656 L 242.546875 162.75 L 232.808594 155.65625 L 244.847656 155.65625 Z M 248.566406 144.183594 " clip-rule="nonzero"/></clipPath><clipPath id="19021f7047"><path d="M 268.824219 144.183594 L 300.390625 144.183594 L 300.390625 174.222656 L 268.824219 174.222656 Z M 268.824219 144.183594 " clip-rule="nonzero"/></clipPath><clipPath id="abc611e558"><path d="M 284.585938 144.183594 L 288.304688 155.65625 L 300.34375 155.65625 L 290.605469 162.75 L 294.324219 174.222656 L 284.585938 167.132812 L 274.84375 174.222656 L 278.566406 162.75 L 268.824219 155.65625 L 280.863281 155.65625 Z M 284.585938 144.183594 " clip-rule="nonzero"/></clipPath><clipPath id="96bc3ba9c0"><path d="M 304.84375 144.183594 L 336.410156 144.183594 L 336.410156 174.222656 L 304.84375 174.222656 Z M 304.84375 144.183594 " clip-rule="nonzero"/></clipPath><clipPath id="306aaeb6d6"><path d="M 320.601562 144.183594 L 324.320312 155.65625 L 336.359375 155.65625 L 326.621094 162.75 L 330.339844 174.222656 L 320.601562 167.132812 L 310.863281 174.222656 L 314.582031 162.75 L 304.84375 155.65625 L 316.882812 155.65625 Z M 320.601562 144.183594 " clip-rule="nonzero"/></clipPath></defs><g clip-path="url(#94c3cf49a0)"><g clip-path="url(#024ba15696)"><path fill="#053a7f" d="M 44.410156 170.535156 L 75.972656 170.535156 L 75.972656 200.574219 L 44.410156 200.574219 Z M 44.410156 170.535156 " fill-opacity="1" fill-rule="nonzero"/></g></g><g fill="#000000" fill-opacity="1"><g transform="translate(42.964505, 168.274926)"><g><path d="M 1.9375 0 L 12.75 0 L 12.75 -3.109375 L 5.5625 -3.109375 L 5.5625 -6.625 L 11.890625 -6.625 L 11.890625 -9.671875 L 5.5625 -9.671875 L 5.5625 -13.015625 L 12.5 -13.015625 L 12.5 -16.09375 L 1.9375 -16.09375 Z M 1.9375 0 "/></g></g></g><g fill="#000000" fill-opacity="1"><g transform="translate(61.65005, 168.274926)"><g><path d="M 1.9375 0 L 5.5625 0 L 5.5625 -9.859375 L 12.671875 0 L 15.765625 0 L 15.765625 -16.09375 L 12.140625 -16.09375 L 12.140625 -6.296875 L 5.03125 -16.09375 L 1.9375 -16.09375 Z M 1.9375 0 "/></g></g></g><g fill="#000000" fill-opacity="1"><g transform="translate(84.104385, 168.274926)"><g><path d="M 5.796875 0 L 9.453125 0 L 9.453125 -12.671875 L 14.546875 -12.671875 L 14.546875 -16.09375 L 0.6875 -16.09375 L 0.6875 -12.671875 L 5.796875 -12.671875 Z M 5.796875 0 "/></g></g></g><g fill="#000000" fill-opacity="1"><g transform="translate(104.099807, 168.274926)"><g><path d="M 1.9375 0 L 5.578125 0 L 5.578125 -5.015625 L 8 -5.015625 L 10.875 0 L 15.09375 0 L 11.765625 -5.578125 C 13.703125 -6.4375 14.828125 -8.1875 14.828125 -10.546875 C 14.828125 -13.96875 12.484375 -16.09375 8.796875 -16.09375 L 1.9375 -16.09375 Z M 5.546875 -8.09375 L 5.546875 -12.96875 L 8.3125 -12.96875 C 10.109375 -12.96875 11.125 -12.09375 11.125 -10.53125 C 11.125 -8.96875 10.109375 -8.09375 8.3125 -8.09375 Z M 5.546875 -8.09375 "/></g></g></g><g fill="#000000" fill-opacity="1"><g transform="translate(125.037435, 168.274926)"><g><path d="M 1.9375 0 L 12.75 0 L 12.75 -3.109375 L 5.5625 -3.109375 L 5.5625 -6.625 L 11.890625 -6.625 L 11.890625 -9.671875 L 5.5625 -9.671875 L 5.5625 -13.015625 L 12.5 -13.015625 L 12.5 -16.09375 L 1.9375 -16.09375 Z M 1.9375 0 "/></g></g></g><g fill="#000000" fill-opacity="1"><g transform="translate(143.722976, 168.274926)"><g><path d="M 1.9375 0 L 5.578125 0 L 5.578125 -4.484375 L 8.234375 -4.484375 C 12.109375 -4.484375 14.625 -6.75 14.625 -10.28125 C 14.625 -13.8125 12.109375 -16.09375 8.234375 -16.09375 L 1.9375 -16.09375 Z M 5.5625 -7.625 L 5.5625 -12.890625 L 7.921875 -12.890625 C 9.84375 -12.890625 10.890625 -11.921875 10.890625 -10.25 C 10.890625 -8.578125 9.84375 -7.625 7.921875 -7.625 Z M 5.5625 -7.625 "/></g></g></g><g fill="#000000" fill-opacity="1"><g transform="translate(163.764371, 168.274926)"><g><path d="M 1.9375 0 L 5.578125 0 L 5.578125 -5.015625 L 8 -5.015625 L 10.875 0 L 15.09375 0 L 11.765625 -5.578125 C 13.703125 -6.4375 14.828125 -8.1875 14.828125 -10.546875 C 14.828125 -13.96875 12.484375 -16.09375 8.796875 -16.09375 L 1.9375 -16.09375 Z M 5.546875 -8.09375 L 5.546875 -12.96875 L 8.3125 -12.96875 C 10.109375 -12.96875 11.125 -12.09375 11.125 -10.53125 C 11.125 -8.96875 10.109375 -8.09375 8.3125 -8.09375 Z M 5.546875 -8.09375 "/></g></g></g><g fill="#000000" fill-opacity="1"><g transform="translate(184.702, 168.274926)"><g><path d="M 1.9375 0 L 5.578125 0 L 5.578125 -16.09375 L 1.9375 -16.09375 Z M 1.9375 0 "/></g></g></g><g fill="#000000" fill-opacity="1"><g transform="translate(196.975994, 168.274926)"><g><path d="M 7.53125 0.328125 C 11.359375 0.328125 13.703125 -1.5 13.703125 -4.53125 C 13.703125 -7.078125 12.015625 -8.59375 8.015625 -9.53125 C 5.5625 -10.109375 4.71875 -10.734375 4.71875 -11.71875 C 4.71875 -12.78125 5.65625 -13.421875 7.1875 -13.421875 C 8.875 -13.421875 9.890625 -12.546875 9.890625 -11.09375 L 13.40625 -11.09375 C 13.40625 -14.34375 10.96875 -16.40625 7.140625 -16.40625 C 3.453125 -16.40625 1.15625 -14.59375 1.15625 -11.65625 C 1.15625 -9.03125 2.921875 -7.46875 6.6875 -6.671875 C 8.96875 -6.1875 10 -5.515625 10 -4.390625 C 10 -3.3125 9.03125 -2.6875 7.515625 -2.6875 C 5.75 -2.6875 4.59375 -3.578125 4.59375 -5.125 L 1.015625 -5.125 C 1.015625 -1.796875 3.5 0.328125 7.53125 0.328125 Z M 7.53125 0.328125 "/></g></g></g><g fill="#000000" fill-opacity="1"><g transform="translate(216.465853, 168.274926)"><g><path d="M 1.9375 0 L 12.75 0 L 12.75 -3.109375 L 5.5625 -3.109375 L 5.5625 -6.625 L 11.890625 -6.625 L 11.890625 -9.671875 L 5.5625 -9.671875 L 5.5625 -13.015625 L 12.5 -13.015625 L 12.5 -16.09375 L 1.9375 -16.09375 Z M 1.9375 0 "/></g></g></g><g fill="#053a7f" fill-opacity="1"><g transform="translate(150.55514, 194.625162)"><g><path d="M 7.53125 0.328125 C 11.359375 0.328125 13.703125 -1.5 13.703125 -4.53125 C 13.703125 -7.078125 12.015625 -8.59375 8.015625 -9.53125 C 5.5625 -10.109375 4.71875 -10.734375 4.71875 -11.71875 C 4.71875 -12.78125 5.65625 -13.421875 7.1875 -13.421875 C 8.875 -13.421875 9.890625 -12.546875 9.890625 -11.09375 L 13.40625 -11.09375 C 13.40625 -14.34375 10.96875 -16.40625 7.140625 -16.40625 C 3.453125 -16.40625 1.15625 -14.59375 1.15625 -11.65625 C 1.15625 -9.03125 2.921875 -7.46875 6.6875 -6.671875 C 8.96875 -6.1875 10 -5.515625 10 -4.390625 C 10 -3.3125 9.03125 -2.6875 7.515625 -2.6875 C 5.75 -2.6875 4.59375 -3.578125 4.59375 -5.125 L 1.015625 -5.125 C 1.015625 -1.796875 3.5 0.328125 7.53125 0.328125 Z M 7.53125 0.328125 "/></g></g></g><g fill="#053a7f" fill-opacity="1"><g transform="translate(170.044998, 194.625162)"><g><path d="M 1.9375 0 L 5.578125 0 L 5.578125 -16.09375 L 1.9375 -16.09375 Z M 1.9375 0 "/></g></g></g><g fill="#053a7f" fill-opacity="1"><g transform="translate(182.31899, 194.625162)"><g><path d="M 0.625 0 L 4.921875 0 L 7.125 -3.40625 L 8.484375 -5.453125 L 9.8125 -3.40625 L 12.015625 0 L 16.3125 0 L 10.84375 -8.25 L 16.046875 -16.09375 L 11.890625 -16.09375 L 8.453125 -10.875 L 6.984375 -13.09375 L 5.0625 -16.09375 L 0.875 -16.09375 L 6.09375 -8.234375 Z M 0.625 0 "/></g></g></g><g fill="#000000" fill-opacity="1"><g transform="translate(204.016074, 194.625162)"><g/></g></g><g fill="#053a7f" fill-opacity="1"><g transform="translate(214.17623, 194.625162)"><g><path d="M 1.9375 0 L 12.75 0 L 12.75 -3.109375 L 5.5625 -3.109375 L 5.5625 -6.625 L 11.890625 -6.625 L 11.890625 -9.671875 L 5.5625 -9.671875 L 5.5625 -13.015625 L 12.5 -13.015625 L 12.5 -16.09375 L 1.9375 -16.09375 Z M 5.90625 -17.625 L 8.53125 -17.625 L 10.34375 -20.984375 L 7.265625 -20.984375 Z M 5.90625 -17.625 "/></g></g></g><g fill="#053a7f" fill-opacity="1"><g transform="translate(232.861774, 194.625162)"><g><path d="M 5.796875 0 L 9.453125 0 L 9.453125 -12.671875 L 14.546875 -12.671875 L 14.546875 -16.09375 L 0.6875 -16.09375 L 0.6875 -12.671875 L 5.796875 -12.671875 Z M 5.796875 0 "/></g></g></g><g fill="#053a7f" fill-opacity="1"><g transform="translate(252.857197, 194.625162)"><g><path d="M 9.5625 0.328125 C 14.59375 0.328125 18.15625 -3.125 18.15625 -8.046875 C 18.15625 -12.96875 14.59375 -16.40625 9.5625 -16.40625 C 4.53125 -16.40625 0.984375 -12.96875 0.984375 -8.046875 C 0.984375 -3.125 4.53125 0.328125 9.5625 0.328125 Z M 4.71875 -8.046875 C 4.71875 -10.9375 6.71875 -12.9375 9.5625 -12.9375 C 12.4375 -12.9375 14.40625 -10.9375 14.40625 -8.046875 C 14.40625 -5.15625 12.4375 -3.15625 9.5625 -3.15625 C 6.71875 -3.15625 4.71875 -5.15625 4.71875 -8.046875 Z M 4.71875 -8.046875 "/></g></g></g><g fill="#053a7f" fill-opacity="1"><g transform="translate(276.759301, 194.625162)"><g><path d="M 1.9375 0 L 5.578125 0 L 5.578125 -16.09375 L 1.9375 -16.09375 Z M 1.9375 0 "/></g></g></g><g fill="#053a7f" fill-opacity="1"><g transform="translate(289.033294, 194.625162)"><g><path d="M 1.9375 0 L 12.625 0 L 12.625 -3.421875 L 5.578125 -3.421875 L 5.578125 -16.09375 L 1.9375 -16.09375 Z M 1.9375 0 "/></g></g></g><g fill="#053a7f" fill-opacity="1"><g transform="translate(307.029425, 194.625162)"><g><path d="M 1.9375 0 L 12.75 0 L 12.75 -3.109375 L 5.5625 -3.109375 L 5.5625 -6.625 L 11.890625 -6.625 L 11.890625 -9.671875 L 5.5625 -9.671875 L 5.5625 -13.015625 L 12.5 -13.015625 L 12.5 -16.09375 L 1.9375 -16.09375 Z M 1.9375 0 "/></g></g></g><g fill="#053a7f" fill-opacity="1"><g transform="translate(325.714965, 194.625162)"><g><path d="M 7.53125 0.328125 C 11.359375 0.328125 13.703125 -1.5 13.703125 -4.53125 C 13.703125 -7.078125 12.015625 -8.59375 8.015625 -9.53125 C 5.5625 -10.109375 4.71875 -10.734375 4.71875 -11.71875 C 4.71875 -12.78125 5.65625 -13.421875 7.1875 -13.421875 C 8.875 -13.421875 9.890625 -12.546875 9.890625 -11.09375 L 13.40625 -11.09375 C 13.40625 -14.34375 10.96875 -16.40625 7.140625 -16.40625 C 3.453125 -16.40625 1.15625 -14.59375 1.15625 -11.65625 C 1.15625 -9.03125 2.921875 -7.46875 6.6875 -6.671875 C 8.96875 -6.1875 10 -5.515625 10 -4.390625 C 10 -3.3125 9.03125 -2.6875 7.515625 -2.6875 C 5.75 -2.6875 4.59375 -3.578125 4.59375 -5.125 L 1.015625 -5.125 C 1.015625 -1.796875 3.5 0.328125 7.53125 0.328125 Z M 7.53125 0.328125 "/></g></g></g><g clip-path="url(#801ef2995d)"><g clip-path="url(#bf44bbf5fb)"><path fill="#053a7f" d="M 80.519531 170.535156 L 112.085938 170.535156 L 112.085938 200.574219 L 80.519531 200.574219 Z M 80.519531 170.535156 " fill-opacity="1" fill-rule="nonzero"/></g></g><g clip-path="url(#5f5f2ff79f)"><g clip-path="url(#0730d9887b)"><path fill="#053a7f" d="M 116.632812 170.535156 L 148.195312 170.535156 L 148.195312 200.574219 L 116.632812 200.574219 Z M 116.632812 170.535156 " fill-opacity="1" fill-rule="nonzero"/></g></g><g clip-path="url(#a8d6f3c2be)"><g clip-path="url(#6dc6c3fb30)"><path fill="#000000" d="M 232.808594 144.183594 L 264.375 144.183594 L 264.375 174.222656 L 232.808594 174.222656 Z M 232.808594 144.183594 " fill-opacity="1" fill-rule="nonzero"/></g></g><g clip-path="url(#19021f7047)"><g clip-path="url(#abc611e558)"><path fill="#000000" d="M 268.824219 144.183594 L 300.390625 144.183594 L 300.390625 174.222656 L 268.824219 174.222656 Z M 268.824219 144.183594 " fill-opacity="1" fill-rule="nonzero"/></g></g><g clip-path="url(#96bc3ba9c0)"><g clip-path="url(#306aaeb6d6)"><path fill="#000000" d="M 304.84375 144.183594 L 336.410156 144.183594 L 336.410156 174.222656 L 304.84375 174.222656 Z M 304.84375 144.183594 " fill-opacity="1" fill-rule="nonzero"/></g></g></svg>